<?xml version="1.0" encoding="utf-8"?>
<!-- Generator: Adobe Illustrator 17.1.0, SVG Export Plug-In . SVG Version: 6.00 Build 0)  -->
<!DOCTYPE svg PUBLIC "-//W3C//DTD SVG 1.1//EN" "http://www.w3.org/Graphics/SVG/1.1/DTD/svg11.dtd">
<svg version="1.1" id="Layer_1" xmlns="http://www.w3.org/2000/svg" xmlns:xlink="http://www.w3.org/1999/xlink" x="0px" y="0px"
	 viewBox="49.5 50.5 52.6 52.6" enable-background="new 49.5 50.5 52.6 52.6" xml:space="preserve">
<path d="M94,50.5H58.2c-4.6,0-8.7,3.4-8.7,8v35.8c0,4.6,4.1,8.8,8.7,8.8h22.1c0-6.9,0-14.6,0-21.2c-1.4,0-2.8-0.1-4.2-0.1
	c0-2.4,0-4.8,0-7.1c1.4,0,2.8,0,4.2,0c0-2.3,0-4.6,0-6.9c0.1-1.8,0.8-3.6,2.2-4.9c1.6-1.6,4-2.1,6.2-2.2c2.3,0,4.7,0,7,0
	c0,2.5,0,4.9,0,7.4c-1.5,0-3,0-4.5,0c-1-0.1-1.9,0.7-2.1,1.6c0,1.6,0,3.3,0,4.9c2.2,0,4.4,0,6.6,0c-0.2,2.4-0.5,4.7-0.8,7.1
	c-1.9,0-3.9,0.2-5.8,0.2c0,6.7,0,14.3,0,21.2H94c4.6,0,8.1-4.2,8.1-8.8V58.5C102.1,53.9,98.6,50.5,94,50.5z"/>
</svg>
