<?xml version="1.0" encoding="utf-8"?>
<!-- Generator: Adobe Illustrator 17.1.0, SVG Export Plug-In . SVG Version: 6.00 Build 0)  -->
<!DOCTYPE svg PUBLIC "-//W3C//DTD SVG 1.1//EN" "http://www.w3.org/Graphics/SVG/1.1/DTD/svg11.dtd">
<svg version="1.1" id="Layer_1" xmlns="http://www.w3.org/2000/svg" xmlns:xlink="http://www.w3.org/1999/xlink" x="0px" y="0px"
	 viewBox="1 1 48.1 48.1" enable-background="new 1 1 48.1 48.1" xml:space="preserve">
<path fill="#000102" d="M39.9,1H10.1C5.1,1,1,5.1,1,10.1v29.8c0,5,4.1,9.2,9.2,9.2h29.8c5,0,9.2-4.1,9.2-9.2V10.1
	C49,5.1,44.9,1,39.9,1z M33,7.8h9.2V17H33V7.8z M25,18.1c5.1,0,9.2,4.1,9.2,9.2s-4.1,9.2-9.2,9.2c-5.1,0-9.2-4.1-9.2-9.2
	C15.8,22.2,19.9,18.1,25,18.1z M44.5,39.9c0,2.5-2.1,4.6-4.6,4.6H10.1c-2.5,0-4.6-2.1-4.6-4.6V26.1h5.8c0,0.4-0.1,0.8-0.1,1.1
	C11.3,34.9,17.4,41,25,41s13.7-6.2,13.7-13.7c0-0.4,0-0.8-0.1-1.1h5.8V39.9z"/>
</svg>
