<?xml version="1.0" encoding="utf-8"?>
<!-- Generator: Adobe Illustrator 17.1.0, SVG Export Plug-In . SVG Version: 6.00 Build 0)  -->
<!DOCTYPE svg PUBLIC "-//W3C//DTD SVG 1.1//EN" "http://www.w3.org/Graphics/SVG/1.1/DTD/svg11.dtd">
<svg version="1.1" id="Layer_1" xmlns="http://www.w3.org/2000/svg" xmlns:xlink="http://www.w3.org/1999/xlink" x="0px" y="0px"
	 viewBox="3.9 7.9 42.2 34.3" enable-background="new 3.9 7.9 42.2 34.3" xml:space="preserve">
<path fill="#000102" d="M46.1,11.9c-1.5,0.7-3.2,1.2-5,1.4c1.8-1.1,3.2-2.8,3.8-4.8c-1.7,1-3.5,1.7-5.5,2.1
	c-1.6-1.7-3.8-2.7-6.3-2.7c-4.8,0-8.6,3.9-8.6,8.6c0,0.7,0.1,1.3,0.2,2c-7.2-0.4-13.6-3.8-17.8-9c-0.7,1.3-1.2,2.8-1.2,4.3
	c0,3,1.5,5.6,3.8,7.2c-1.4,0-2.8-0.4-3.9-1.1c0,0,0,0.1,0,0.1c0,4.2,3,7.7,6.9,8.5c-0.7,0.2-1.5,0.3-2.3,0.3c-0.6,0-1.1-0.1-1.6-0.1
	c1.1,3.4,4.3,5.9,8.1,6C13.8,37,10,38.4,6,38.4c-0.7,0-1.4,0-2.1-0.1c3.8,2.5,8.4,3.9,13.3,3.9c15.9,0,24.6-13.2,24.6-24.6
	c0-0.4,0-0.7,0-1.1C43.5,15.2,44.9,13.7,46.1,11.9z"/>
</svg>
