<?xml version="1.0" encoding="utf-8"?>
<!-- Generator: Adobe Illustrator 18.1.1, SVG Export Plug-In . SVG Version: 6.00 Build 0)  -->
<!DOCTYPE svg PUBLIC "-//W3C//DTD SVG 1.1//EN" "http://www.w3.org/Graphics/SVG/1.1/DTD/svg11.dtd">
<svg version="1.1" id="Layer_1" xmlns="http://www.w3.org/2000/svg" xmlns:xlink="http://www.w3.org/1999/xlink" x="0px" y="0px"
	 viewBox="0 0 234.56 13.342" style="enable-background:new 0 0 234.56 13.342;" xml:space="preserve">
<style type="text/css">
	.st0{fill:#FFFFFF;}
</style>
<path class="st0" d="M9.58,7.559c0.773-1.723,0.932-2.145,1.09-2.812c0.088-0.404,0.123-0.809,0.123-1.213
	c0-1.318-0.387-2.057-1.213-2.303V1.055h4.887v0.176c-0.914,0.369-1.231,0.615-1.863,1.406c-0.703,0.896-1.266,1.846-2.021,3.445
	l-3.48,7.26L2.566,4.025c-0.492-0.984-0.861-1.6-1.266-2.057C0.949,1.565,0.668,1.406,0,1.231V1.055h6.715v0.176
	C5.977,1.354,5.678,1.652,5.678,2.268c0,0.404,0.176,0.897,0.703,1.986l0.334,0.738l2.021,4.412L9.58,7.559z"/>
<path class="st0" d="M36.315,6.662c0.967-0.07,1.635-0.316,2.197-0.791c0.58-0.457,0.844-0.949,0.967-1.793h0.176v5.414H39.48
	c-0.193-0.809-0.545-1.406-1.107-1.916c-0.562-0.492-1.037-0.65-2.057-0.721v4.148c0,1.213,0.229,1.564,1.037,1.564
	c2.232,0,4.57-2.021,5.537-4.799h0.176l-0.791,4.992H31.235v-0.176c1.477-0.105,1.635-0.334,1.635-2.83V4.061
	c0-2.478-0.158-2.725-1.652-2.83V1.055h10.371l0.703,4.025h-0.176c-0.387-0.896-0.598-1.23-1.16-1.898
	c-0.369-0.439-0.738-0.773-1.125-1.037c-0.844-0.598-1.846-0.896-3.006-0.896h-0.51V6.662z"/>
<path class="st0" d="M72.174,8.191V5.572c0-1.916-0.369-3.199-1.125-3.867c-0.299-0.281-0.598-0.387-1.248-0.475V1.055h5.203v0.176
	c-1.055,0.105-1.529,0.439-1.969,1.353c-0.457,1.002-0.615,1.969-0.615,3.727v7.031L63.139,2.777v5.01
	c0,1.828,0.193,2.918,0.65,3.674c0.457,0.756,0.932,1.037,1.969,1.125v0.176h-5.555v-0.176c1.072-0.176,1.688-0.598,2.127-1.406
	c0.422-0.809,0.562-1.74,0.562-3.709l0.018-3.182c0-1.67-0.246-2.197-1.23-2.707c-0.51-0.264-0.791-0.334-1.494-0.352V1.055h5.73
	L72.174,8.191z"/>
<path class="st0" d="M95.797,8.279c-0.334,0.879-0.457,1.459-0.457,2.127c0,1.318,0.65,2.127,1.74,2.18v0.176h-5.432v-0.176
	c1.002-0.158,1.723-0.668,2.549-1.793c0.545-0.738,0.932-1.477,1.354-2.602l1.793-4.676c-0.229-0.404-0.369-0.615-0.703-0.932
	c0.738-0.351,0.967-0.527,1.705-1.213C98.908,0.826,99.119,0.615,99.629,0l0.158,0.404c0.246,0.65,0.492,1.318,0.756,1.951
	l2.268,5.467c0.316,0.773,0.984,2.25,1.424,3.146c0.193,0.404,0.422,0.756,0.668,1.037c0.387,0.422,0.703,0.562,1.406,0.58v0.176
	h-7.084v-0.176c0.826-0.018,1.23-0.352,1.23-0.984c0-0.439-0.246-1.266-0.738-2.408L99.33,8.279H95.797z M97.484,3.709L95.85,8.068
	h3.428L97.484,3.709z"/>
<path class="st0" d="M135.153,1.055h5.133v0.176c-1.512,0.105-1.652,0.352-1.652,2.83v5.695c0,2.479,0.141,2.725,1.652,2.83v0.176
	h-6.732v-0.176c1.477-0.105,1.635-0.352,1.635-2.83V1.547l-4.658,11.795l-4.623-11.531v5.977c0,1.793,0.193,2.918,0.65,3.674
	c0.439,0.738,0.914,1.02,1.951,1.125v0.176h-5.555v-0.176c1.107-0.193,1.705-0.598,2.145-1.406c0.422-0.826,0.562-1.758,0.562-3.709
	V3.779c0-1.582-0.158-1.969-0.932-2.285c-0.404-0.176-0.65-0.229-1.371-0.264V1.055h5.941l2.918,7.383L135.153,1.055z"/>
<path class="st0" d="M169.056,11.023c-2.467,2.556-6.38,2.71-8.809,0.365c-2.427-2.342-2.421-6.27,0.045-8.824
	c2.454-2.541,6.392-2.697,8.818-0.355C171.538,4.553,171.51,8.482,169.056,11.023z M162.848,2.271
	c-0.852-0.358-1.756-0.181-2.378,0.464c-0.624,0.645-0.768,1.555-0.381,2.394c0.465,0.985,1.405,2.188,2.796,3.53
	c1.392,1.342,2.625,2.241,3.627,2.671c0.865,0.37,1.756,0.181,2.379-0.465c0.622-0.646,0.769-1.529,0.382-2.393
	c-0.441-0.961-1.395-2.176-2.799-3.531C165.083,3.598,163.85,2.7,162.848,2.271z"/>
<path class="st0" d="M203.587,1.231c-1.002,0.211-1.582,0.879-1.898,2.25c-0.264,1.09-0.369,2.25-0.369,3.937v1.354
	c0,1.459-0.193,2.215-0.721,2.865c-0.299,0.334-0.668,0.633-1.09,0.844c-0.703,0.352-1.547,0.51-2.689,0.51
	c-1.67,0-3.006-0.316-3.938-0.967c-0.967-0.65-1.248-1.424-1.248-3.305V4.061c0-2.478-0.141-2.725-1.635-2.83V1.055h6.609v0.176
	c-1.389,0.105-1.512,0.352-1.512,2.83v4.096c0,1.863,0.088,2.549,0.404,3.094c0.404,0.721,1.354,1.16,2.461,1.16
	c1.371,0,2.373-0.545,2.812-1.512c0.246-0.58,0.316-1.002,0.316-2.127V7.154c0-2.197-0.211-3.744-0.615-4.728
	c-0.281-0.65-0.58-0.914-1.354-1.195V1.055h4.465V1.231z"/>
<path class="st0" d="M225.226,9.756c0,2.479,0.141,2.725,1.652,2.83v0.176h-6.732v-0.176c1.477-0.105,1.635-0.352,1.635-2.83V4.061
	c0-2.478-0.158-2.725-1.652-2.83V1.055h4.922c2.654,0,3.955,0.211,5.08,0.809c1.037,0.545,1.635,1.389,1.635,2.285
	c0,1.318-1.107,2.197-3.059,2.478c1.301,0.229,1.793,0.633,2.549,2.092l0.984,1.916c0.809,1.582,1.143,1.863,2.32,1.951v0.176h-5.15
	l-0.193-0.439c-0.563-1.336-0.809-1.881-1.336-3.006c-0.264-0.58-0.527-1.055-0.756-1.441c-0.369-0.58-0.949-0.932-1.582-0.932
	h-0.316V9.756z M225.718,6.733c1.652,0,2.355-0.826,2.355-2.742c0-0.897-0.176-1.6-0.545-2.057c-0.369-0.492-0.861-0.685-1.81-0.685
	h-0.492v5.484H225.718z"/>
</svg>
